<?xml version="1.0" encoding="utf-8"?>
<!-- Generator: Adobe Illustrator 23.0.1, SVG Export Plug-In . SVG Version: 6.00 Build 0)  -->
<svg version="1.1" id="Capa_1" xmlns="http://www.w3.org/2000/svg" xmlns:xlink="http://www.w3.org/1999/xlink" x="0px" y="0px"
	 viewBox="0 0 284.9289856 284.9289856" style="enable-background:new 0 0 284.9289856 284.9289856;" xml:space="preserve">
<style type="text/css">
	.st0{fill:#FFFFFF;}
</style>
<g>
	<path class="st0" d="M195.2845001,2.8464916L62.2394943,135.9004974c-1.9029999,1.901001-2.855999,4.0879974-2.855999,6.5619965
		s0.9529991,4.6649933,2.855999,6.5670013l133.0450134,133.042984c1.9059906,1.9060059,4.0930023,2.8560181,6.5679932,2.8560181
		c2.473999,0,4.6640015-0.9530029,6.5659943-2.8560181l14.2709961-14.2719727
		c1.9029999-1.9030151,2.8540039-4.0930176,2.8540039-6.5670166s-0.951004-4.6640015-2.8540039-6.5670013L110.4874725,142.4624939
		L222.6964874,30.2544804c1.9029999-1.9020081,2.8480072-4.0929871,2.8480072-6.5629883
		c0-2.4779968-0.951004-4.6679993-2.8480072-6.5700073L208.4194794,2.8474987
		c-1.9019928-1.9020079-4.0930023-2.8469849-6.5659943-2.8469849C199.3775024-0.0004932,197.1875,0.9444836,195.2845001,2.8464916z"
		/>
</g>
</svg>
