<?xml version="1.0" encoding="utf-8"?>
<!-- Generator: Adobe Illustrator 23.0.1, SVG Export Plug-In . SVG Version: 6.00 Build 0)  -->
<svg version="1.1" id="Capa_1" xmlns="http://www.w3.org/2000/svg" xmlns:xlink="http://www.w3.org/1999/xlink" x="0px" y="0px"
	 viewBox="0 0 284.9289856 284.9289856" style="enable-background:new 0 0 284.9289856 284.9289856;" xml:space="preserve">
<style type="text/css">
	.st0{fill:#FFFFFF;}
</style>
<g>
	<path class="st0" d="M89.6434479,282.0824585L222.688446,149.0284729c1.9029999-1.901001,2.8560028-4.0879974,2.8560028-6.5619965
		s-0.9530029-4.6649933-2.8560028-6.5670013L89.6434479,2.8564696c-1.9059906-1.906-4.0930023-2.8559999-6.5679932-2.8559999
		c-2.473999,0-4.6640015,0.953-6.5659943,2.8559999L62.2384605,17.1284695
		c-1.9029999,1.9029999-2.8540039,4.0930004-2.8540039,6.5669994s0.951004,4.6639996,2.8540039,6.5669994l112.2019958,112.20401
		L62.2314568,254.6744843c-1.9029999,1.9019928-2.8480072,4.0929718-2.8480072,6.562973
		c0,2.4779968,0.951004,4.6679993,2.8480072,6.5700073l14.2770119,14.2739868
		c1.9019928,1.9020081,4.0930023,2.8469849,6.5659943,2.8469849
		C85.5504456,284.9294434,87.740448,283.9844666,89.6434479,282.0824585z"/>
</g>
</svg>
