<?xml version="1.0" encoding="utf-8"?>
<!-- Generator: Adobe Illustrator 21.0.2, SVG Export Plug-In . SVG Version: 6.00 Build 0)  -->
<svg version="1.1" id="Layer_1" xmlns="http://www.w3.org/2000/svg" xmlns:xlink="http://www.w3.org/1999/xlink" x="0px" y="0px"
	 viewBox="0 0 100 100" style="enable-background:new 0 0 100 100;" xml:space="preserve">
<path d="M50,5C25.2,5,5,25.2,5,50c0,24.8,20.2,45,45,45c24.8,0,45-20.2,45-45C95,25.2,74.8,5,50,5z M50,91C27.4,91,9,72.6,9,50
	S27.4,9,50,9s41,18.4,41,41S72.6,91,50,91z M50,15c-19.3,0-35,15.7-35,35s15.7,35,35,35s35-15.7,35-35S69.3,15,50,15z M52,80.9V75
	c0-1.1-0.9-2-2-2s-2,0.9-2,2v5.9c-15.5-1-27.9-13.4-28.9-28.9H25c1.1,0,2-0.9,2-2s-0.9-2-2-2h-5.9c1-15.5,13.4-27.9,28.9-28.9V25
	c0,1.1,0.9,2,2,2s2-0.9,2-2v-5.9c15.5,1,27.9,13.4,28.9,28.9H75c-1.1,0-2,0.9-2,2s0.9,2,2,2h5.9C79.9,67.5,67.5,79.9,52,80.9z
	 M66.1,31.2L42.8,41.8c0,0,0,0,0,0l0,0c0,0-0.1,0.1-0.1,0.1c-0.1,0.1-0.2,0.1-0.3,0.2c-0.1,0-0.1,0.1-0.2,0.2
	c-0.1,0.1-0.1,0.1-0.2,0.2c-0.1,0.1-0.1,0.2-0.2,0.3c0,0-0.1,0.1-0.1,0.1L31.2,66.1c-0.3,0.8-0.2,1.7,0.4,2.2C32,68.8,32.5,69,33,69
	c0.3,0,0.6-0.1,0.8-0.2l23.3-10.6c0,0,0,0,0,0l0,0c0,0,0.1,0,0.1-0.1c0.1-0.1,0.2-0.1,0.3-0.2c0.1,0,0.1-0.1,0.2-0.2
	s0.1-0.1,0.2-0.2c0.1-0.1,0.1-0.2,0.2-0.3c0,0,0-0.1,0.1-0.1l0,0c0,0,0,0,0,0l10.6-23.3c0.3-0.8,0.2-1.7-0.4-2.2
	C67.8,31,66.9,30.9,66.1,31.2z M37.1,62.9l7.2-15.9l8.6,8.6L37.1,62.9z M55.7,52.9l-8.6-8.6l15.9-7.2L55.7,52.9z"/>
</svg>
