<?xml version="1.0" encoding="utf-8"?>
<!-- Generator: Adobe Illustrator 23.0.1, SVG Export Plug-In . SVG Version: 6.00 Build 0)  -->
<svg version="1.1" id="Capa_1" xmlns="http://www.w3.org/2000/svg" xmlns:xlink="http://www.w3.org/1999/xlink" x="0px" y="0px"
	 viewBox="0 0 97.5 97.5" style="enable-background:new 0 0 97.5 97.5;" xml:space="preserve">
<style type="text/css">
	.st0{fill:#242424;}
</style>
<g>
	<g>
		<g>
			<path class="st0" d="M70.1,27.2c1.4,1.2,3.2,1.8,5,1.8c2.3,0,4.5-1,6-2.8c2.8-3.3,2.3-8.2-1-11c-1.4-1.2-3.2-1.8-5-1.8
				c-2.3,0-4.5,1-6,2.8C66.3,19.5,66.8,24.4,70.1,27.2z"/>
			<path class="st0" d="M88.4,36.1c-0.5,0-1,0-1.4,0.1c-4.5,0.8-7.5,5.1-6.7,9.6c0.7,4,4.1,6.8,8.1,6.8c0.5,0,1,0,1.5-0.1
				c4.5-0.8,7.5-5.1,6.7-9.6C95.9,39,92.5,36.1,88.4,36.1z"/>
			<path class="st0" d="M88.2,63.1c-1.3-0.8-2.8-1.2-4.4-1.2c-3.1,0-6,1.7-7.6,4.4c-1.2,2-1.5,4.4-0.9,6.6s2.1,4.1,4.1,5.3
				c1.3,0.8,2.8,1.2,4.4,1.2c3.1,0,6-1.7,7.6-4.4C93.8,70.9,92.3,65.5,88.2,63.1z"/>
			<path class="st0" d="M63.3,78.6c-1.1,0-2.1,0.2-3.2,0.6C57.9,80,56,81.7,55,84c-1,2.2-1.1,4.7-0.3,7c1.3,3.6,4.8,6.1,8.7,6.1
				c1.1,0,2.1-0.2,3.1-0.6c2.3-0.8,4.2-2.5,5.2-4.8c1-2.2,1.2-4.7,0.3-7C70.7,81.1,67.2,78.6,63.3,78.6z"/>
			<path class="st0" d="M39.9,78.8c-1.1-0.4-2.2-0.6-3.3-0.6c-4.1,0-7.7,2.6-9.1,6.4c-0.9,2.4-0.8,5.1,0.3,7.4c1.1,2.3,3,4.1,5.5,5
				c1.1,0.4,2.2,0.6,3.3,0.6c4.1,0,7.7-2.6,9.1-6.4c0.9-2.4,0.8-5.1-0.3-7.4C44.3,81.4,42.3,79.6,39.9,78.8z"/>
			<path class="st0" d="M24.9,65.6c-1.8-3.1-5.2-5.1-8.8-5.1c-1.8,0-3.5,0.5-5.1,1.4c-2.4,1.4-4,3.5-4.7,6.2c-0.7,2.6-0.3,5.4,1,7.7
				c1.8,3.1,5.2,5.1,8.8,5.1c1.8,0,3.5-0.5,5.1-1.4C26,76.7,27.7,70.4,24.9,65.6z"/>
			<path class="st0" d="M11.5,55c5.2,0,9.6-3.7,10.5-8.8c0.5-2.8-0.1-5.6-1.8-7.9c-1.6-2.3-4.1-3.9-6.9-4.4
				c-0.6-0.1-1.2-0.2-1.9-0.2c-5.2,0-9.6,3.7-10.5,8.8c-0.5,2.8,0.1,5.6,1.8,7.9c1.6,2.3,4.1,3.9,6.9,4.4C10.3,54.9,10.9,55,11.5,55
				z"/>
			<path class="st0" d="M24.8,32.3c2.6,0,5.1-0.9,7.1-2.6c2.3-1.9,3.7-4.6,3.9-7.5s-0.6-5.8-2.6-8.1c-2.1-2.5-5.2-4-8.5-4
				c-2.6,0-5.1,0.9-7.1,2.6c-2.3,1.9-3.7,4.6-3.9,7.5c-0.3,3,0.6,5.8,2.6,8.1C18.5,30.9,21.6,32.3,24.8,32.3z"/>
		</g>
		<circle class="st0" cx="50" cy="12.1" r="12.1"/>
	</g>
</g>
</svg>
