<?xml version="1.0" encoding="utf-8"?>
<!-- Generator: Adobe Illustrator 23.0.1, SVG Export Plug-In . SVG Version: 6.00 Build 0)  -->
<svg version="1.1" id="Слой_2" xmlns="http://www.w3.org/2000/svg" xmlns:xlink="http://www.w3.org/1999/xlink" x="0px" y="0px"
	 viewBox="0 0 388.842926 186.6702118" style="enable-background:new 0 0 388.842926 186.6702118;" xml:space="preserve">
<style type="text/css">
	.st0{fill:#FFFFFF;}
</style>
<polygon class="st0" points="0.0018231,143.6682281 0.0018231,115.3525391 43.0033646,158.4818115 43.0038147,186.6702118 "/>
<polygon class="st0" points="142.6325989,0 142.6325989,85.5476761 71.3162766,156.8639526 0,85.5476761 0,0 43.0063629,43.1325989 
	43.0063629,71.3229294 19.9318905,48.2484589 19.9318905,77.1962128 71.3162766,128.6736298 122.7007065,77.1962128 
	122.7007065,48.2484589 99.6261978,71.3229294 99.6261978,43.1325989 "/>
<polygon class="st0" points="142.6307373,143.6682281 142.6307373,115.3525391 99.6291962,158.4818115 99.628746,186.6702118 "/>
<g>
	<path class="st0" d="M174.9703674,20.0440903h36.4921875v11.1064453h-24.9892578v13.2480469h21.6572266v11.1064453h-21.6572266
		v22.9267578h-11.5029297V20.0440903z"/>
	<path class="st0" d="M218.9986877,49.3175278c0-4.0185547,0.765625-7.8261719,2.3007813-11.4238281
		c1.5332031-3.5957031,3.6611328-6.7822266,6.3852539-9.5595703c2.7236328-2.7763672,5.8828125-4.9580078,9.4794922-6.5439453
		c3.5966797-1.5869141,7.4570313-2.3798828,11.5830078-2.3798828c4.0712891,0,7.9052734,0.7929688,11.5029297,2.3798828
		c3.5957031,1.5859375,6.7822266,3.7675781,9.5585938,6.5439453c2.7773438,2.7773438,4.9453125,5.9638672,6.5058594,9.5595703
		c1.5585938,3.5976563,2.3398438,7.4052734,2.3398438,11.4238281c0,4.125-0.78125,7.9863281-2.3398438,11.5820313
		c-1.5605469,3.5976563-3.7285156,6.7568359-6.5058594,9.4804688c-2.7763672,2.7246094-5.9628906,4.8525391-9.5585938,6.3857422
		c-3.5976563,1.5341797-7.4316406,2.3007813-11.5029297,2.3007813c-4.1259766,0-7.9863281-0.7666016-11.5830078-2.3007813
		c-3.5966797-1.5332031-6.7558594-3.6611328-9.4794922-6.3857422c-2.7241211-2.7236328-4.8520508-5.8828125-6.3852539-9.4804688
		C219.7643127,57.3038559,218.9986877,53.4425278,218.9986877,49.3175278z M230.8976135,49.3175278
		c0,2.5917969,0.4619141,5.0117188,1.3876953,7.2587891c0.9248047,2.2480469,2.2216797,4.2314453,3.8876953,5.9501953
		s3.5957031,3.0537109,5.7910156,4.0058594c2.1943359,0.9521484,4.5878906,1.4277344,7.1796875,1.4277344
		c2.4853516,0,4.7988281-0.4755859,6.9414063-1.4277344c2.1416016-0.9521484,4.0058594-2.2871094,5.5927734-4.0058594
		s2.828125-3.7021484,3.7285156-5.9501953c0.8984375-2.2470703,1.3486328-4.6669922,1.3486328-7.2587891
		c0-2.6435547-0.4638672-5.1035156-1.3886719-7.3779297c-0.9257813-2.2734375-2.1953125-4.2705078-3.8076172-5.9892578
		c-1.6142578-1.7177734-3.5039063-3.0546875-5.671875-4.0058594c-2.1699219-0.9521484-4.5224609-1.4287109-7.0605469-1.4287109
		c-2.5390625,0-4.8925781,0.4765625-7.0605469,1.4287109c-2.1689453,0.9511719-4.0732422,2.2880859-5.7119141,4.0058594
		c-1.6396484,1.71875-2.9091797,3.7158203-3.8076172,5.9892578
		C231.3458557,44.2140121,230.8976135,46.6739731,230.8976135,49.3175278z"/>
	<polygon class="st0" points="335.3781433,78.4350815 320.5381165,78.4350815 307.4580994,58.3050766 296.1081238,78.4350815 
		281.8280945,78.4350815 300.9781189,48.3150864 282.6181335,20.0450668 297.2981262,20.0450668 309.9381409,39.4350815 
		320.8581238,20.0450668 334.8181458,20.0450668 316.2281189,49.0650864 	"/>
</g>
<g>
	<path class="st0" d="M206.2781067,135.6451111c1.8699951-1.0499878,3.4200439-2.3300171,4.6700439-3.8500366
		c1.6099854-1.9599609,2.7799683-4.1200027,3.4899902-6.5000076c0.7099609-2.3800049,1.0700073-4.7599487,1.0700073-7.1399536
		c0-3.0200195-0.5-5.7300415-1.5100098-8.1400146c-1-2.4000244-2.4700317-4.460022-4.4000244-6.1799927
		c-1.9299927-1.7200317-4.3200073-3.0400391-7.1799927-3.9700317c-2.8499756-0.9199829-6.1099854-1.3899536-9.7600098-1.3899536
		h-17.6900024v58.3899612h11.5100098v-18.5599976h7.6599731l12.3300171,18.5599976h13.4000244L206.2781067,135.6451111z
		 M186.4781189,109.5851059h8.25c2,0,3.6099854,0.3399658,4.789978,1.0299683
		c1.2000122,0.6900024,2.0800171,1.5300293,2.6600342,2.5400391c0.5800171,1,0.9699707,2,1.1499634,2.9699707
		c0.1900024,0.9799805,0.2800293,1.789978,0.2800293,2.4199829c0,0.8500366-0.1500244,1.7600098-0.4400024,2.7400513
		c-0.289978,0.9799805-0.7600098,1.9199829-1.4199829,2.8199463c-0.6700439,0.9000244-1.5800171,1.6400146-2.7399902,2.2200317
		c-1.1600342,0.5800171-2.6200562,0.8699951-4.3600464,0.8699951h-8.1699829V109.5851059z"/>
	<path class="st0" d="M229.389801,98.4767075h39.8242188v11.1064453h-28.3212891v12.4550781h25.0683594v11.1064529h-25.0683594
		v12.6132813h29.4316406v11.1064453H229.389801V98.4767075z"/>
	<polygon class="st0" points="334.8181458,98.4751205 334.8181458,159.2450867 334.4981384,159.2450867 293.6581116,122.3550644 
		293.888092,156.8650818 282.2181091,156.8650818 282.2181091,96.1750717 282.6981506,96.1750717 323.4681091,133.6650696 
		323.2381287,98.4751205 	"/>
	<path class="st0" d="M345.9249573,98.4767075h39.3476563v11.1064453h-14.2001953v47.2812576h-11.5029297v-47.2812576h-13.6445313
		V98.4767075z"/>
</g>
</svg>
