<?xml version="1.0" encoding="utf-8"?>
<!-- Generator: Adobe Illustrator 23.0.1, SVG Export Plug-In . SVG Version: 6.00 Build 0)  -->
<svg version="1.1" id="Слой_1" xmlns="http://www.w3.org/2000/svg" xmlns:xlink="http://www.w3.org/1999/xlink" x="0px" y="0px"
	 viewBox="0 0 388.8 186.7" style="enable-background:new 0 0 388.8 186.7;" xml:space="preserve">
<style type="text/css">
	.st0{fill:#242424;}
</style>
<polygon class="st0" points="0,143.7 0,115.4 43,158.5 43,186.7 "/>
<polygon class="st0" points="142.6,0 142.6,85.5 71.3,156.9 0,85.5 0,0 43,43.1 43,71.3 19.9,48.2 19.9,77.2 71.3,128.7 122.7,77.2 
	122.7,48.2 99.6,71.3 99.6,43.1 "/>
<polygon class="st0" points="142.6,143.7 142.6,115.4 99.6,158.5 99.6,186.7 "/>
<g>
	<path class="st0" d="M175,20h36.5v11.1h-25v13.2h21.7v11.1h-21.7v22.9H175V20z"/>
	<path class="st0" d="M219,49.3c0-4,0.8-7.8,2.3-11.4c1.5-3.6,3.7-6.8,6.4-9.6c2.7-2.8,5.9-5,9.5-6.5c3.6-1.6,7.5-2.4,11.6-2.4
		c4.1,0,7.9,0.8,11.5,2.4c3.6,1.6,6.8,3.8,9.6,6.5c2.8,2.8,4.9,6,6.5,9.6c1.6,3.6,2.3,7.4,2.3,11.4c0,4.1-0.8,8-2.3,11.6
		c-1.6,3.6-3.7,6.8-6.5,9.5c-2.8,2.7-6,4.9-9.6,6.4c-3.6,1.5-7.4,2.3-11.5,2.3c-4.1,0-8-0.8-11.6-2.3c-3.6-1.5-6.8-3.7-9.5-6.4
		c-2.7-2.7-4.9-5.9-6.4-9.5C219.8,57.3,219,53.4,219,49.3z M230.9,49.3c0,2.6,0.5,5,1.4,7.3c0.9,2.2,2.2,4.2,3.9,6s3.6,3.1,5.8,4
		c2.2,1,4.6,1.4,7.2,1.4c2.5,0,4.8-0.5,6.9-1.4c2.1-1,4-2.3,5.6-4s2.8-3.7,3.7-6c0.9-2.2,1.3-4.7,1.3-7.3c0-2.6-0.5-5.1-1.4-7.4
		c-0.9-2.3-2.2-4.3-3.8-6c-1.6-1.7-3.5-3.1-5.7-4c-2.2-1-4.5-1.4-7.1-1.4c-2.5,0-4.9,0.5-7.1,1.4c-2.2,1-4.1,2.3-5.7,4
		c-1.6,1.7-2.9,3.7-3.8,6C231.3,44.2,230.9,46.7,230.9,49.3z"/>
	<polygon class="st0" points="335.4,78.4 320.5,78.4 307.5,58.3 296.1,78.4 281.8,78.4 301,48.3 282.6,20 297.3,20 309.9,39.4 
		320.9,20 334.8,20 316.2,49.1 	"/>
</g>
<g>
	<path class="st0" d="M206.3,135.6c1.9-1,3.4-2.3,4.7-3.9c1.6-2,2.8-4.1,3.5-6.5c0.7-2.4,1.1-4.8,1.1-7.1c0-3-0.5-5.7-1.5-8.1
		c-1-2.4-2.5-4.5-4.4-6.2c-1.9-1.7-4.3-3-7.2-4c-2.8-0.9-6.1-1.4-9.8-1.4H175v58.4h11.5v-18.6h7.7l12.3,18.6h13.4L206.3,135.6z
		 M186.5,109.6h8.3c2,0,3.6,0.3,4.8,1c1.2,0.7,2.1,1.5,2.7,2.5c0.6,1,1,2,1.1,3c0.2,1,0.3,1.8,0.3,2.4c0,0.9-0.2,1.8-0.4,2.7
		c-0.3,1-0.8,1.9-1.4,2.8c-0.7,0.9-1.6,1.6-2.7,2.2c-1.2,0.6-2.6,0.9-4.4,0.9h-8.2V109.6z"/>
	<path class="st0" d="M229.4,98.5h39.8v11.1h-28.3V122H266v11.1h-25.1v12.6h29.4v11.1h-40.9V98.5z"/>
	<polygon class="st0" points="334.8,98.5 334.8,159.2 334.5,159.2 293.7,122.4 293.9,156.9 282.2,156.9 282.2,96.2 282.7,96.2 
		323.5,133.7 323.2,98.5 	"/>
	<path class="st0" d="M345.9,98.5h39.3v11.1h-14.2v47.3h-11.5v-47.3h-13.6V98.5z"/>
</g>
</svg>
