<?xml version="1.0" encoding="utf-8"?>
<!-- Generator: Adobe Illustrator 23.0.1, SVG Export Plug-In . SVG Version: 6.00 Build 0)  -->
<svg version="1.1" id="Слой_1" xmlns="http://www.w3.org/2000/svg" xmlns:xlink="http://www.w3.org/1999/xlink" x="0px" y="0px"
	 viewBox="0 0 512 512" style="enable-background:new 0 0 512 512;" xml:space="preserve">
<style type="text/css">
	.st0{fill:#FFFFFF;}
</style>
<g>
	<g>
		<path class="st0" d="M360.4,336.8c93.4-78,150.9-195.3,150.9-320.9c0-7.6-6.8-14.4-14.4-14.4C371.3,1.5,254.1,58.8,176,152.4
			c-45.1,1.7-87.2,19.9-119.3,52c-32.4,32.4-50.9,75.5-52,121.4c-0.3,11.3,16.3,22.6,26.8,7.6c5.5-7.8,10.5-15.8,16.8-22.1
			c15.9-15.9,35.7-26.1,57.3-29.9c0.7,2.3,1.9,4.4,3.6,6.2l116,116c1.8,1.8,3.9,2.9,6.2,3.6c-3.8,21.6-14.1,41.5-29.9,57.3
			c-6.4,6.4-14.4,11.1-22.1,16.8c-16.1,12-2,27.2,7.6,26.8c45.9-1.3,89-19.6,121.4-52C340.5,423.9,358.9,381.8,360.4,336.8z
			 M482.2,30.5c-1.4,37.8-8.5,74.7-20.4,109.6L372.7,51C407.6,39,444.4,31.9,482.2,30.5L482.2,30.5z M42.8,278.1
			c7.3-19.9,19-38,34.3-53.3c20.7-20.7,46.6-34.6,74.8-40.5c-0.7,0.9-30.8,52.3-37.2,66.9C88.4,253.1,63.6,262.3,42.8,278.1
			L42.8,278.1z M239,376.2L136.4,273.7c38.7-96.3,114.5-171.4,206.9-211.6l107.2,107.2C410.4,261.8,335.3,337.5,239,376.2z
			 M261.6,398.1c20.3-8.9,66.2-36.7,66.9-37.2c-5.8,28.1-19.7,53.9-40.5,74.8c-15.4,15.4-33.6,26.9-53.3,34.3
			C250.3,449,259.6,424.3,261.6,398.1L261.6,398.1z"/>
		<path class="st0" d="M109,321.3c-5.7-5.7-14.8-5.6-20.4,0l-51.2,51.2c-5.7,5.7-5.6,14.8,0,20.4c5.6,5.6,14.8,5.6,20.4,0l51.2-51.2
			C114.7,335.9,114.6,326.8,109,321.3z"/>
		<path class="st0" d="M150.2,362.4c-2.8-2.8-6.6-4.2-10.3-4.2c0,0,0,0-0.2,0c-2.3,0-4.8,0.7-7,2c-1.1,0.7-2.2,1.4-3.1,2.3
			L27.3,464.8c-0.8,0.8-1.5,1.7-2.1,2.6c-3.4,5.6-2.7,12.9,2.1,17.7c4.8,4.8,12.1,5.5,17.7,2.1c1-0.6,1.9-1.3,2.6-2.1l102.4-102.4
			c1-1,1.8-2,2.3-3.1C155.7,374.2,154.9,367.1,150.2,362.4z"/>
		<path class="st0" d="M191.4,403.6c-5.7-5.7-14.8-5.6-20.4,0l-51.2,51.2c-5.7,5.7-5.6,14.8,0,20.4c5.6,5.6,14.8,5.6,20.4,0
			l51.2-51.2C197.2,418.4,197.1,409.3,191.4,403.6z"/>
	</g>
</g>
</svg>
