<?xml version="1.0" encoding="utf-8"?>
<!-- Generator: Adobe Illustrator 21.0.2, SVG Export Plug-In . SVG Version: 6.00 Build 0)  -->
<svg version="1.1" id="Layer_1" xmlns="http://www.w3.org/2000/svg" xmlns:xlink="http://www.w3.org/1999/xlink" x="0px" y="0px"
	 viewBox="0 0 100 100" style="enable-background:new 0 0 100 100;" xml:space="preserve">
<path d="M82,69h-3v-5.9c9.5-5.3,16-15.5,16-27.1C95,18.9,81.1,5,64,5c-11.7,0-21.8,6.5-27.1,16H22.4c-2.7,0-5.3,1.2-7.1,3.2
	c-1.8,2-2.6,4.7-2.2,7.3c3.8,28.8,26.6,51.6,55.4,55.4c0.4,0,0.8,0.1,1.2,0.1c2.2,0,4.4-0.8,6.1-2.3c2-1.8,3.2-4.4,3.2-7.1V73h3
	c5,0,9,4,9,9c0,5-4,9-9,9H7c-1.1,0-2,0.9-2,2c0,1.1,0.9,2,2,2h75c7.2,0,13-5.8,13-13C95,74.8,89.2,69,82,69z M75,77.6
	c0,1.6-0.7,3.1-1.9,4.1c-1.2,1-2.6,1.5-4.1,1.3C42,79.4,20.6,58,17,31c-0.2-1.5,0.2-3,1.3-4.1c1-1.2,2.5-1.9,4.1-1.9h15.5
	c0,0,0.1,0,0.1,0.1l3.5,14.1l-5.9,6.5c-0.6,0.6-0.7,1.6-0.2,2.4c4.1,6.8,9.9,12.6,16.7,16.7c0.8,0.5,1.7,0.4,2.4-0.2l6.5-5.9l14,3.5
	c0,0,0.1,0,0.1,0.1V77.6z M77.8,59.2c-0.5-0.5-1.1-0.9-1.9-1.1l-14-3.5c-1.3-0.3-2.7,0-3.7,1l-5.3,4.9c-5.3-3.4-9.9-8-13.3-13.3
	l4.9-5.4c0.9-1,1.3-2.4,0.9-3.7l-3.5-14c-0.2-0.7-0.6-1.4-1.1-1.9C45.2,14.8,53,9.8,62,9.1V13c0,1.1,0.9,2,2,2s2-0.9,2-2V9.1
	c13.3,1,23.9,11.6,24.9,24.9H87c-1.1,0-2,0.9-2,2c0,1.1,0.9,2,2,2h3.9C90.2,47,85.2,54.8,77.8,59.2z M75,34h-4.3
	c-0.7-2.2-2.5-4-4.7-4.7V21c0-1.1-0.9-2-2-2s-2,0.9-2,2v8.3c-2.9,0.9-5,3.5-5,6.7c0,3.9,3.1,7,7,7c3.2,0,5.8-2.1,6.7-5H75
	c1.1,0,2-0.9,2-2C77,34.9,76.1,34,75,34z M64,39c-1.7,0-3-1.4-3-3c0-1.7,1.3-3,3-3s3,1.3,3,3C67,37.6,65.7,39,64,39z"/>
</svg>
