<?xml version="1.0" encoding="utf-8"?>
<!-- Generator: Adobe Illustrator 23.0.1, SVG Export Plug-In . SVG Version: 6.00 Build 0)  -->
<svg version="1.1" id="Livello_1" xmlns="http://www.w3.org/2000/svg" xmlns:xlink="http://www.w3.org/1999/xlink" x="0px" y="0px"
	 viewBox="0 0 240.1 240.1" style="enable-background:new 0 0 240.1 240.1;" xml:space="preserve">
<style type="text/css">
	.st0{fill-rule:evenodd;clip-rule:evenodd;fill:url(#SVGID_1_);}
</style>
<linearGradient id="SVGID_1_" gradientUnits="userSpaceOnUse" x1="120.1" y1="-3.051758e-05" x2="120.1" y2="238.2812">
	<stop  offset="0" style="stop-color:#2AABEE"/>
	<stop  offset="1" style="stop-color:#229ED9"/>
</linearGradient>
<path class="st0" d="M120.1,0C53.8,0,0,53.8,0,120.1s53.8,120.1,120.1,120.1s120.1-53.8,120.1-120.1S186.4,0,120.1,0z M175.7,81.6
	c-1.8,19-9.6,65.1-13.6,86.3c-1.7,9-5,12-8.2,12.3c-7,0.6-12.3-4.6-19-9c-10.6-6.9-16.5-11.2-26.8-18c-11.9-7.8-4.2-12.1,2.6-19.1
	c1.8-1.8,32.5-29.8,33.1-32.3c0.1-0.3,0.1-1.5-0.6-2.1c-0.7-0.6-1.7-0.4-2.5-0.2c-1.1,0.2-17.9,11.4-50.6,33.5
	c-4.8,3.3-9.1,4.9-13,4.8c-4.3-0.1-12.5-2.4-18.7-4.4c-7.5-2.4-13.5-3.7-13-7.9c0.3-2.2,3.3-4.4,8.9-6.7c35-15.2,58.3-25.3,70-30.2
	c33.3-13.9,40.3-16.3,44.8-16.4c1,0,3.2,0.2,4.7,1.4c1.2,1,1.5,2.3,1.7,3.3S175.9,80,175.7,81.6z"/>
</svg>
