<?xml version="1.0" encoding="utf-8"?>
<!-- Generator: Adobe Illustrator 23.0.1, SVG Export Plug-In . SVG Version: 6.00 Build 0)  -->
<svg version="1.1" id="Слой_1" xmlns="http://www.w3.org/2000/svg" xmlns:xlink="http://www.w3.org/1999/xlink" x="0px" y="0px"
	 viewBox="0 0 96 96" style="enable-background:new 0 0 96 96;" xml:space="preserve">
<style type="text/css">
	.st0{fill:#665CAC;}
</style>
<path class="st0" d="M66.9,57.7c-2.2-1.9-3.2-2.4-6.3-4.3c-1.3-0.8-3.2-1.4-4.2-1.4c-0.7,0-1.5,0.5-2,1c-1.3,1.3-1.7,3-4,3
	c-2.3,0-6.2-2.3-9-5.3c-3-2.8-5.3-6.8-5.3-9c0-2.3,1.6-2.8,2.9-4.1c0.5-0.5,1.1-1.3,1.1-2c0-1-0.7-2.9-1.4-4.2
	c-1.8-3.1-2.4-4.1-4.3-6.3c-0.6-0.8-1.4-1.1-2.1-1.1c-1.3,0-3,0.6-4.1,1.5c-1.7,1.3-3.5,3-4,5.2c-0.1,0.3-0.1,0.6-0.1,0.9
	c-0.1,2.2,0.8,4.5,1.7,6.5c2.2,4.6,5.2,9,8.5,12.9c1,1.3,2.2,2.4,3.3,3.6c1.1,1.2,2.3,2.3,3.6,3.3C45,61,49.4,64,54,66.3
	c1.9,0.9,4.2,1.8,6.4,1.7c0.3,0,0.6,0,1-0.1c2.2-0.5,3.9-2.3,5.2-4c0.8-1.1,1.5-2.8,1.5-4.1C68,59.1,67.7,58.3,66.9,57.7z M68,48
	c-1.1,0-2-0.9-2-2v-2c0-9.9-8.1-18-18-18c-1.1,0-2-0.9-2-2s0.9-2,2-2c12.1,0,22,9.9,22,22v2C70,47.1,69.1,48,68,48z M55.7,44
	c-0.9,0-1.7-0.6-1.9-1.5c-0.5-2.1-2.2-3.7-4.3-4.3c-1.1-0.3-1.7-1.4-1.4-2.4c0.3-1.1,1.4-1.7,2.4-1.4c3.5,0.9,6.2,3.6,7.2,7.1
	c0.3,1.1-0.4,2.2-1.4,2.4C56.1,44,55.9,44,55.7,44z"/>
<path class="st0" d="M62,46c-1.1,0-2-0.9-2-2c0-6.4-5-11.6-11.4-12c-1.1-0.1-2-1-1.9-2.1c0.1-1.1,1-2,2.1-1.9
	C57.3,28.5,64,35.5,64,44C64,45.1,63.1,46,62,46z"/>
<path class="st0" d="M48,8c-9,0-23,0.8-31.6,8.6C10.4,22.6,8,31.1,8,42c0,0.9,0,1.9,0,3c0,1.1,0,2.1,0,3c0,10.9,2.4,19.4,8.4,25.4
	c3.3,3,7.3,4.9,11.6,6.2v9.2c0,3.2,2.1,3.3,2.5,3.3h0c1,0,1.8-0.5,2.7-1.2c0.3-0.3,4-4.4,8.1-9C43.7,81.9,46,82,48,82l0,0l0,0
	c9,0,23-0.8,31.6-8.6c6-6,8.4-14.5,8.4-25.4c0-0.9,0-1.9,0-3c0-1.1,0-2.1,0-3c0-10.9-2.4-19.4-8.4-25.4C71,8.8,57,8,48,8z M82,47.3
	V48c0,9.8-2.1,16.5-6.6,21c-7.8,7-22.6,7-27.4,7c-1.5,0-3.9,0-6.7-0.2C40.5,76.7,32,86.2,32,86.2V74.4c-4.2-1-8.4-2.7-11.4-5.4
	C16.1,64.5,14,57.8,14,48v-0.7c0-0.7,0-1.5,0-2.3c0-0.8,0-1.6,0-2.3V42c0-9.8,2.1-16.5,6.6-21c7.8-7,22.6-7,27.4-7s19.7,0,27.4,7
	c4.5,4.5,6.6,11.2,6.6,21v0.7c0,0.7,0,1.5,0,2.3C82,45.8,82,46.6,82,47.3z"/>
</svg>
