<?xml version="1.0" encoding="utf-8"?>
<!-- Generator: Adobe Illustrator 23.0.1, SVG Export Plug-In . SVG Version: 6.00 Build 0)  -->
<svg version="1.1" id="Layer_1" xmlns="http://www.w3.org/2000/svg" xmlns:xlink="http://www.w3.org/1999/xlink" x="0px" y="0px"
	 viewBox="0 0 195 194.5" style="enable-background:new 0 0 195 194.5;" xml:space="preserve">
<style type="text/css">
	.st0{fill-rule:evenodd;clip-rule:evenodd;fill:#43D854;}
</style>
<g>
	<path class="st0" d="M0,194.5c5.3-17.1,11.4-33.3,17-50C-20.1,79.6,25.8,6.6,88,0.5c58.7-5.7,106.8,36.4,107,94
		c0.2,60.7-58.7,111.7-125,91c-5-1.6-11.2-6.7-17-7c-8.1-0.5-18.8,5.4-27,8C17,189.4,9.2,192.3,0,194.5z M55,160.5
		c53.5,32.5,117.6-3.9,123-57c4.9-48-33.4-90.7-85-87c-58.9,4.3-94.2,74.6-58,126c-3.2,8.8-6.2,17.8-9,27
		C35.8,166.7,44.9,163,55,160.5z"/>
	<path class="st0" d="M76,49.5c5.6,11.8,14.3,29.2,0,37c7.3,15.4,19.3,26,35,33c5.2-3.4,8.6-8.7,13-13c9.1,3.6,17.6,7.7,25,13
		c0.8,17.2-13.7,23.6-26,23c-25.9-1.2-61.4-33.9-70-58C47.9,70.2,53.8,42.8,76,49.5z"/>
</g>
</svg>
